<svg width="24" height="24" viewBox="0 0 24 24" fill="none" xmlns="http://www.w3.org/2000/svg">
<path d="M21.9936 9.23411C21.9305 9.0512 21.8156 8.89054 21.663 8.77161C21.5103 8.65269 21.3264 8.58061 21.1336 8.56411L15.4436 7.73411L12.8936 2.56411C12.8117 2.39504 12.6839 2.25245 12.5247 2.15268C12.3655 2.05291 12.1815 2 11.9936 2C11.8058 2 11.6217 2.05291 11.4625 2.15268C11.3034 2.25245 11.1755 2.39504 11.0936 2.56411L8.54363 7.72411L2.85363 8.56411C2.66855 8.59042 2.49455 8.66807 2.35138 8.78827C2.20821 8.90846 2.10159 9.06638 2.04363 9.24411C1.99057 9.41778 1.98581 9.60263 2.02986 9.7788C2.0739 9.95498 2.16509 10.1158 2.29363 10.2441L6.42363 14.2441L5.42363 19.9241C5.38793 20.1116 5.40662 20.3054 5.4775 20.4826C5.54838 20.6598 5.66848 20.813 5.82363 20.9241C5.97485 21.0322 6.1532 21.096 6.33868 21.1084C6.52415 21.1208 6.7094 21.0812 6.87363 20.9941L11.9936 18.3241L17.0936 21.0041C17.234 21.0833 17.3925 21.1246 17.5536 21.1241C17.7655 21.1249 17.972 21.0583 18.1436 20.9341C18.2988 20.823 18.4189 20.6698 18.4898 20.4926C18.5606 20.3154 18.5793 20.1216 18.5436 19.9341L17.5436 14.2541L21.6736 10.2541C21.818 10.1318 21.9247 9.97101 21.9814 9.79046C22.038 9.6099 22.0423 9.41698 21.9936 9.23411ZM15.8436 13.2341C15.7264 13.3475 15.6386 13.488 15.5881 13.6431C15.5375 13.7982 15.5257 13.9634 15.5536 14.1241L16.2736 18.3141L12.5136 16.3141C12.3689 16.2371 12.2075 16.1968 12.0436 16.1968C11.8797 16.1968 11.7183 16.2371 11.5736 16.3141L7.81363 18.3141L8.53363 14.1241C8.56157 13.9634 8.54974 13.7982 8.49919 13.6431C8.44865 13.488 8.36091 13.3475 8.24363 13.2341L5.24363 10.2341L9.45363 9.62411C9.61563 9.60158 9.76963 9.53965 9.90213 9.44376C10.0346 9.34787 10.1416 9.22095 10.2136 9.07411L11.9936 5.26411L13.8736 9.08411C13.9457 9.23095 14.0526 9.35787 14.1851 9.45376C14.3176 9.54965 14.4716 9.61158 14.6336 9.63411L18.8436 10.2441L15.8436 13.2341Z" fill="#384150"/>
</svg>
