<svg width="24" height="24" viewBox="0 0 24 24" fill="none" xmlns="http://www.w3.org/2000/svg">
<path d="M12.0395 16.0686C11.8417 16.0686 11.6484 16.1273 11.4839 16.2372C11.3195 16.347 11.1913 16.5032 11.1156 16.6859C11.04 16.8687 11.0201 17.0697 11.0587 17.2637C11.0973 17.4577 11.1926 17.6359 11.3324 17.7757C11.4723 17.9156 11.6504 18.0108 11.8444 18.0494C12.0384 18.088 12.2395 18.0682 12.4222 17.9925C12.6049 17.9168 12.7611 17.7887 12.871 17.6242C12.9809 17.4598 13.0395 17.2664 13.0395 17.0686C13.0395 16.8034 12.9342 16.5491 12.7466 16.3615C12.5591 16.174 12.3047 16.0686 12.0395 16.0686ZM22.7095 17.5386L14.6595 3.53863C14.3993 3.07215 14.0193 2.68359 13.5587 2.4131C13.0981 2.14261 12.5737 2 12.0395 2C11.5054 2 10.9809 2.14261 10.5203 2.4131C10.0597 2.68359 9.67971 3.07215 9.41952 3.53863L1.41952 17.5386C1.15031 17.9926 1.00566 18.5097 1.00016 19.0375C0.994665 19.5652 1.12852 20.0852 1.3882 20.5447C1.64789 21.0042 2.02422 21.3871 2.4792 21.6547C2.93418 21.9222 3.4517 22.065 3.97952 22.0686H20.0995C20.6316 22.0739 21.1554 21.9375 21.6174 21.6735C22.0794 21.4096 22.4629 21.0275 22.7285 20.5665C22.9941 20.1054 23.1324 19.582 23.129 19.05C23.1257 18.5179 22.9809 17.9963 22.7095 17.5386ZM20.9795 19.5386C20.8919 19.6946 20.764 19.8242 20.6092 19.9139C20.4544 20.0036 20.2784 20.0501 20.0995 20.0486H3.97952C3.80063 20.0501 3.62462 20.0036 3.46984 19.9139C3.31505 19.8242 3.18717 19.6946 3.09952 19.5386C3.01175 19.3866 2.96554 19.2142 2.96554 19.0386C2.96554 18.8631 3.01175 18.6906 3.09952 18.5386L11.0995 4.53863C11.1834 4.37483 11.3109 4.23736 11.468 4.14137C11.625 4.04538 11.8055 3.99459 11.9895 3.99459C12.1736 3.99459 12.354 4.04538 12.5111 4.14137C12.6681 4.23736 12.7956 4.37483 12.8795 4.53863L20.9295 18.5386C21.0287 18.6885 21.0857 18.8623 21.0945 19.0418C21.1033 19.2213 21.0636 19.3998 20.9795 19.5586V19.5386ZM12.0395 8.06863C11.7743 8.06863 11.5199 8.17399 11.3324 8.36152C11.1449 8.54906 11.0395 8.80341 11.0395 9.06863V13.0686C11.0395 13.3338 11.1449 13.5882 11.3324 13.7757C11.5199 13.9633 11.7743 14.0686 12.0395 14.0686C12.3047 14.0686 12.5591 13.9633 12.7466 13.7757C12.9342 13.5882 13.0395 13.3338 13.0395 13.0686V9.06863C13.0395 8.80341 12.9342 8.54906 12.7466 8.36152C12.5591 8.17399 12.3047 8.06863 12.0395 8.06863Z" fill="#384150"/>
</svg>
