<svg width="24" height="24" viewBox="0 0 24 24" fill="none" xmlns="http://www.w3.org/2000/svg">
<path d="M12 1C9.43639 1.00731 6.97349 1.99891 5.12 3.77V2C5.12 1.73478 5.01464 1.48043 4.82711 1.29289C4.63957 1.10536 4.38522 1 4.12 1C3.85478 1 3.60043 1.10536 3.41289 1.29289C3.22536 1.48043 3.12 1.73478 3.12 2V6.5C3.12 6.76522 3.22536 7.01957 3.41289 7.20711C3.60043 7.39464 3.85478 7.5 4.12 7.5H8.62C8.88522 7.5 9.13957 7.39464 9.32711 7.20711C9.51464 7.01957 9.62 6.76522 9.62 6.5C9.62 6.23478 9.51464 5.98043 9.32711 5.79289C9.13957 5.60536 8.88522 5.5 8.62 5.5H6.22C7.50578 4.15636 9.21951 3.30265 11.0665 3.08567C12.9136 2.86868 14.7785 3.30198 16.3407 4.31104C17.9028 5.32011 19.0646 6.84191 19.6263 8.61479C20.188 10.3877 20.1145 12.3009 19.4184 14.0254C18.7223 15.7499 17.4472 17.1781 15.8122 18.0643C14.1772 18.9505 12.2845 19.2394 10.4596 18.8813C8.63463 18.5232 6.99147 17.5405 5.81259 16.1022C4.63372 14.6638 3.99279 12.8597 4 11C4 10.7348 3.89464 10.4804 3.70711 10.2929C3.51957 10.1054 3.26522 10 3 10C2.73478 10 2.48043 10.1054 2.29289 10.2929C2.10536 10.4804 2 10.7348 2 11C2 12.9778 2.58649 14.9112 3.6853 16.5557C4.78412 18.2002 6.3459 19.4819 8.17317 20.2388C10.0004 20.9957 12.0111 21.1937 13.9509 20.8079C15.8907 20.422 17.6725 19.4696 19.0711 18.0711C20.4696 16.6725 21.422 14.8907 21.8079 12.9509C22.1937 11.0111 21.9957 9.00043 21.2388 7.17317C20.4819 5.3459 19.2002 3.78412 17.5557 2.6853C15.9112 1.58649 13.9778 1 12 1ZM12 7C11.7348 7 11.4804 7.10536 11.2929 7.29289C11.1054 7.48043 11 7.73478 11 8V11C11 11.2652 11.1054 11.5196 11.2929 11.7071C11.4804 11.8946 11.7348 12 12 12H14C14.2652 12 14.5196 11.8946 14.7071 11.7071C14.8946 11.5196 15 11.2652 15 11C15 10.7348 14.8946 10.4804 14.7071 10.2929C14.5196 10.1054 14.2652 10 14 10H13V8C13 7.73478 12.8946 7.48043 12.7071 7.29289C12.5196 7.10536 12.2652 7 12 7Z" fill="#384150"/>
</svg>
