<svg width="24" height="24" viewBox="0 0 24 24" fill="none" xmlns="http://www.w3.org/2000/svg">
<path d="M17.2458 13.5358L12.9558 9.2958C12.8628 9.20207 12.7522 9.12768 12.6304 9.07691C12.5085 9.02614 12.3778 9 12.2458 9C12.1138 9 11.9831 9.02614 11.8612 9.07691C11.7394 9.12768 11.6288 9.20207 11.5358 9.2958L7.2958 13.5358C7.20207 13.6288 7.12768 13.7394 7.07691 13.8612C7.02614 13.9831 7 14.1138 7 14.2458C7 14.3778 7.02614 14.5085 7.07691 14.6304C7.12768 14.7522 7.20207 14.8628 7.2958 14.9558C7.48316 15.142 7.73661 15.2466 8.0008 15.2466C8.26498 15.2466 8.51844 15.142 8.7058 14.9558L12.2458 11.4158L15.7858 14.9558C15.9721 15.1405 16.2235 15.2447 16.4858 15.2458C16.6174 15.2466 16.7479 15.2213 16.8697 15.1716C16.9915 15.1218 17.1024 15.0485 17.1958 14.9558C17.2929 14.8662 17.3712 14.7582 17.4263 14.6381C17.4814 14.5181 17.5122 14.3883 17.5169 14.2562C17.5215 14.1242 17.4999 13.9925 17.4534 13.8689C17.4069 13.7452 17.3363 13.632 17.2458 13.5358Z" fill="#384150"/>
</svg>
