<svg width="24" height="24" viewBox="0 0 24 24" fill="none" xmlns="http://www.w3.org/2000/svg">
<path d="M3 9C3.19778 9 3.39112 8.94135 3.55557 8.83147C3.72002 8.72159 3.84819 8.56541 3.92388 8.38268C3.99957 8.19996 4.01937 7.99889 3.98079 7.80491C3.9422 7.61093 3.84696 7.43275 3.70711 7.29289C3.56725 7.15304 3.38907 7.0578 3.19509 7.01921C3.00111 6.98063 2.80004 7.00043 2.61732 7.07612C2.43459 7.15181 2.27841 7.27998 2.16853 7.44443C2.05865 7.60888 2 7.80222 2 8C2 8.26522 2.10536 8.51957 2.29289 8.70711C2.48043 8.89464 2.73478 9 3 9ZM7 9H14C14.7956 9 15.5587 8.68393 16.1213 8.12132C16.6839 7.55871 17 6.79565 17 6C17 5.20435 16.6839 4.44129 16.1213 3.87868C15.5587 3.31607 14.7956 3 14 3C13.4739 3.00218 12.9573 3.13994 12.5 3.4C12.3854 3.46533 12.2849 3.55268 12.2042 3.65703C12.1235 3.76138 12.0643 3.88066 12.0299 4.008C11.9955 4.13534 11.9866 4.26822 12.0038 4.399C12.021 4.52978 12.0639 4.65587 12.13 4.77C12.1962 4.88375 12.2841 4.98333 12.3889 5.06302C12.4936 5.14271 12.613 5.20094 12.7403 5.23439C12.8675 5.26783 13.0002 5.27583 13.1305 5.25791C13.2609 5.24 13.3865 5.19653 13.5 5.13C13.6538 5.04722 13.8253 5.00264 14 5C14.2652 5 14.5196 5.10536 14.7071 5.29289C14.8946 5.48043 15 5.73478 15 6C15 6.26522 14.8946 6.51957 14.7071 6.70711C14.5196 6.89464 14.2652 7 14 7H7C6.73478 7 6.48043 7.10536 6.29289 7.29289C6.10536 7.48043 6 7.73478 6 8C6 8.26522 6.10536 8.51957 6.29289 8.70711C6.48043 8.89464 6.73478 9 7 9ZM3 13H10C10.2652 13 10.5196 12.8946 10.7071 12.7071C10.8946 12.5196 11 12.2652 11 12C11 11.7348 10.8946 11.4804 10.7071 11.2929C10.5196 11.1054 10.2652 11 10 11H3C2.73478 11 2.48043 11.1054 2.29289 11.2929C2.10536 11.4804 2 11.7348 2 12C2 12.2652 2.10536 12.5196 2.29289 12.7071C2.48043 12.8946 2.73478 13 3 13ZM20 9C20.1978 9 20.3911 8.94135 20.5556 8.83147C20.72 8.72159 20.8482 8.56541 20.9239 8.38268C20.9996 8.19996 21.0194 7.99889 20.9808 7.80491C20.9422 7.61093 20.847 7.43275 20.7071 7.29289C20.5673 7.15304 20.3891 7.0578 20.1951 7.01921C20.0011 6.98063 19.8 7.00043 19.6173 7.07612C19.4346 7.15181 19.2784 7.27998 19.1685 7.44443C19.0586 7.60888 19 7.80222 19 8C19 8.26522 19.1054 8.51957 19.2929 8.70711C19.4804 8.89464 19.7348 9 20 9ZM18 11H14C13.7348 11 13.4804 11.1054 13.2929 11.2929C13.1054 11.4804 13 11.7348 13 12C13 12.2652 13.1054 12.5196 13.2929 12.7071C13.4804 12.8946 13.7348 13 14 13H18C18.2652 13 18.5196 13.1054 18.7071 13.2929C18.8946 13.4804 19 13.7348 19 14C19 14.2652 18.8946 14.5196 18.7071 14.7071C18.5196 14.8946 18.2652 15 18 15C17.7348 15 17.4804 15.1054 17.2929 15.2929C17.1054 15.4804 17 15.7348 17 16C17 16.2652 17.1054 16.5196 17.2929 16.7071C17.4804 16.8946 17.7348 17 18 17C18.7956 17 19.5587 16.6839 20.1213 16.1213C20.6839 15.5587 21 14.7956 21 14C21 13.2044 20.6839 12.4413 20.1213 11.8787C19.5587 11.3161 18.7956 11 18 11ZM12 15H8C7.73478 15 7.48043 15.1054 7.29289 15.2929C7.10536 15.4804 7 15.7348 7 16C7 16.2652 7.10536 16.5196 7.29289 16.7071C7.48043 16.8946 7.73478 17 8 17H12C12.2652 17 12.5196 17.1054 12.7071 17.2929C12.8946 17.4804 13 17.7348 13 18C13 18.2652 12.8946 18.5196 12.7071 18.7071C12.5196 18.8946 12.2652 19 12 19C11.8253 18.9974 11.6538 18.9528 11.5 18.87C11.3862 18.7976 11.2589 18.7491 11.1258 18.7272C10.9927 18.7053 10.8566 18.7105 10.7256 18.7426C10.5946 18.7747 10.4715 18.833 10.3636 18.9139C10.2557 18.9948 10.1652 19.0967 10.0978 19.2135C10.0303 19.3302 9.98708 19.4594 9.97082 19.5933C9.95456 19.7272 9.96555 19.863 10.0031 19.9925C10.0407 20.1221 10.1041 20.2427 10.1895 20.347C10.2749 20.4514 10.3805 20.5375 10.5 20.6C10.9573 20.8601 11.4739 20.9978 12 21C12.7956 21 13.5587 20.6839 14.1213 20.1213C14.6839 19.5587 15 18.7956 15 18C15 17.2044 14.6839 16.4413 14.1213 15.8787C13.5587 15.3161 12.7956 15 12 15ZM4 15H3C2.73478 15 2.48043 15.1054 2.29289 15.2929C2.10536 15.4804 2 15.7348 2 16C2 16.2652 2.10536 16.5196 2.29289 16.7071C2.48043 16.8946 2.73478 17 3 17H4C4.26522 17 4.51957 16.8946 4.70711 16.7071C4.89464 16.5196 5 16.2652 5 16C5 15.7348 4.89464 15.4804 4.70711 15.2929C4.51957 15.1054 4.26522 15 4 15Z" fill="#384150"/>
</svg>
