<svg width="24" height="24" viewBox="0 0 24 24" fill="none" xmlns="http://www.w3.org/2000/svg">
<path d="M2.50471 10.064L11.5047 15.264C11.6567 15.3517 11.8292 15.3979 12.0047 15.3979C12.1802 15.3979 12.3527 15.3517 12.5047 15.264L21.5047 10.064C21.6562 9.97607 21.782 9.8499 21.8695 9.69809C21.9569 9.54628 22.0029 9.37416 22.0029 9.19897C22.0029 9.02379 21.9569 8.85167 21.8695 8.69986C21.782 8.54805 21.6562 8.42188 21.5047 8.33397L12.5047 3.13397C12.3527 3.04621 12.1802 3 12.0047 3C11.8292 3 11.6567 3.04621 11.5047 3.13397L2.50471 8.33397C2.35317 8.42188 2.22738 8.54805 2.13995 8.69986C2.05251 8.85167 2.00648 9.02379 2.00648 9.19897C2.00648 9.37416 2.05251 9.54628 2.13995 9.69809C2.22738 9.8499 2.35317 9.97607 2.50471 10.064ZM12.0047 5.15397L19.0047 9.15397L12.0047 13.204L5.00471 9.19397L12.0047 5.15397ZM20.5047 12.944L12.0047 17.854L3.50471 12.944C3.39117 12.8774 3.26562 12.834 3.13525 12.8161C3.00488 12.7981 2.87225 12.8061 2.74498 12.8396C2.61771 12.873 2.49828 12.9313 2.39356 13.011C2.28884 13.0906 2.20087 13.1902 2.13471 13.304C2.06859 13.4181 2.02571 13.5442 2.00852 13.675C1.99134 13.8058 2.0002 13.9386 2.03459 14.066C2.06898 14.1933 2.12822 14.3126 2.20891 14.4169C2.28959 14.5213 2.39012 14.6086 2.50471 14.674L11.5047 19.874C11.6567 19.9617 11.8292 20.0079 12.0047 20.0079C12.1802 20.0079 12.3527 19.9617 12.5047 19.874L21.5047 14.674C21.6193 14.6086 21.7198 14.5213 21.8005 14.4169C21.8812 14.3126 21.9404 14.1933 21.9748 14.066C22.0092 13.9386 22.0181 13.8058 22.0009 13.675C21.9837 13.5442 21.9408 13.4181 21.8747 13.304C21.8085 13.1902 21.7206 13.0906 21.6159 13.011C21.5111 12.9313 21.3917 12.873 21.2644 12.8396C21.1372 12.8061 21.0045 12.7981 20.8742 12.8161C20.7438 12.834 20.6182 12.8774 20.5047 12.944Z" fill="#384150"/>
</svg>
