<svg width="24" height="24" viewBox="0 0 24 24" fill="none" xmlns="http://www.w3.org/2000/svg">
<path fill-rule="evenodd" clip-rule="evenodd" d="M15.7019 5.01855C16.0325 5.08185 16.3119 5.30134 16.4516 5.6075L21.9062 17.5555C22.053 17.8771 22.0262 18.2514 21.835 18.5488C21.6439 18.8462 21.3146 19.026 20.961 19.026H3.03899C2.61475 19.026 2.23312 18.768 2.07495 18.3744C1.91677 17.9807 2.01383 17.5304 2.32013 17.2369L14.7876 5.28886C15.0306 5.05599 15.3714 4.95526 15.7019 5.01855ZM12.7 10.1675L15.9049 16.948H19.3446L15.169 7.80144L12.7 10.1675ZM13.6065 16.948L11.1182 11.6834L9.76382 12.9814L11.7348 16.948H13.6065ZM9.41452 16.948L8.192 14.4877L5.62472 16.948H9.41452Z" fill="#384150"/>
</svg>
