<svg width="24" height="24" viewBox="0 0 24 24" fill="none" xmlns="http://www.w3.org/2000/svg">
<path d="M21.7309 20.3109L18.0209 16.6309C19.461 14.8353 20.1584 12.5562 19.9697 10.2622C19.781 7.9682 18.7206 5.83368 17.0064 4.29754C15.2923 2.76141 13.0547 1.94041 10.7538 2.00337C8.45294 2.06633 6.26362 3.00846 4.63604 4.63604C3.00846 6.26362 2.06633 8.45294 2.00337 10.7538C1.94041 13.0547 2.76141 15.2923 4.29754 17.0064C5.83368 18.7206 7.9682 19.781 10.2622 19.9697C12.5562 20.1584 14.8353 19.461 16.6309 18.0209L20.3109 21.7009C20.4039 21.7946 20.5145 21.869 20.6363 21.9198C20.7582 21.9706 20.8889 21.9967 21.0209 21.9967C21.1529 21.9967 21.2836 21.9706 21.4055 21.9198C21.5273 21.869 21.6379 21.7946 21.7309 21.7009C21.9111 21.5144 22.0119 21.2652 22.0119 21.0059C22.0119 20.7466 21.9111 20.4974 21.7309 20.3109ZM11.0209 18.0209C9.63643 18.0209 8.28305 17.6104 7.13191 16.8412C5.98076 16.072 5.08356 14.9788 4.55374 13.6997C4.02393 12.4206 3.88531 11.0131 4.1554 9.65527C4.4255 8.2974 5.09219 7.05012 6.07115 6.07115C7.05012 5.09219 8.2974 4.4255 9.65527 4.1554C11.0131 3.88531 12.4206 4.02393 13.6997 4.55374C14.9788 5.08356 16.072 5.98076 16.8412 7.13191C17.6104 8.28305 18.0209 9.63643 18.0209 11.0209C18.0209 12.8774 17.2834 14.6579 15.9706 15.9706C14.6579 17.2834 12.8774 18.0209 11.0209 18.0209Z" fill="#384150"/>
</svg>
