<svg width="24" height="24" viewBox="0 0 24 24" fill="none" xmlns="http://www.w3.org/2000/svg">
<path d="M11.981 2C10.0415 2.00369 8.14489 2.57131 6.52223 3.63374C4.89958 4.69617 3.6209 6.20754 2.84195 7.98377C2.06299 9.76 1.81738 11.7244 2.13503 13.6378C2.45268 15.5511 3.31988 17.3308 4.63101 18.76C5.56743 19.775 6.70395 20.5851 7.96894 21.1392C9.23394 21.6933 10.6 21.9793 11.981 21.9793C13.362 21.9793 14.7281 21.6933 15.9931 21.1392C17.2581 20.5851 18.3946 19.775 19.331 18.76C20.6421 17.3308 21.5093 15.5511 21.827 13.6378C22.1446 11.7244 21.899 9.76 21.1201 7.98377C20.3411 6.20754 19.0624 4.69617 17.4398 3.63374C15.8171 2.57131 13.9205 2.00369 11.981 2ZM11.981 20C9.90947 19.9969 7.91992 19.1903 6.43101 17.75C6.88305 16.6495 7.65204 15.7083 8.64026 15.0459C9.62848 14.3835 10.7913 14.0298 11.981 14.0298C13.1707 14.0298 14.3335 14.3835 15.3218 15.0459C16.31 15.7083 17.079 16.6495 17.531 17.75C16.0421 19.1903 14.0525 19.9969 11.981 20ZM9.98101 10C9.98101 9.60444 10.0983 9.21776 10.3181 8.88886C10.5378 8.55996 10.8502 8.30362 11.2156 8.15224C11.5811 8.00087 11.9832 7.96126 12.3712 8.03843C12.7591 8.1156 13.1155 8.30608 13.3952 8.58579C13.6749 8.86549 13.8654 9.22186 13.9426 9.60982C14.0197 9.99778 13.9801 10.3999 13.8288 10.7654C13.6774 11.1308 13.421 11.4432 13.0921 11.6629C12.7632 11.8827 12.3766 12 11.981 12C11.4506 12 10.9419 11.7893 10.5668 11.4142C10.1917 11.0391 9.98101 10.5304 9.98101 10ZM18.891 16C17.9975 14.4718 16.6224 13.283 14.981 12.62C15.4902 12.0427 15.8219 11.3307 15.9365 10.5694C16.051 9.80822 15.9435 9.03011 15.6268 8.3285C15.31 7.62688 14.7976 7.03156 14.1509 6.61397C13.5042 6.19637 12.7508 5.97425 11.981 5.97425C11.2112 5.97425 10.4578 6.19637 9.8111 6.61397C9.16442 7.03156 8.65198 7.62688 8.33526 8.3285C8.01853 9.03011 7.91099 9.80822 8.02554 10.5694C8.14008 11.3307 8.47184 12.0427 8.98101 12.62C7.3396 13.283 5.96447 14.4718 5.07101 16C4.35895 14.7871 3.98273 13.4065 3.98101 12C3.98101 9.87827 4.82386 7.84344 6.32415 6.34315C7.82444 4.84285 9.85927 4 11.981 4C14.1027 4 16.1376 4.84285 17.6379 6.34315C19.1382 7.84344 19.981 9.87827 19.981 12C19.9793 13.4065 19.6031 14.7871 18.891 16Z" fill="#384150"/>
</svg>
