<svg width="24" height="24" viewBox="0 0 24 24" fill="none" xmlns="http://www.w3.org/2000/svg">
<path d="M8.18 5.45L6.4 4.55L7.66 2H16.13L17.4 4.55L15.62 5.44L14.9 4H8.9L8.18 5.45ZM18.52 8H13.99L13.2 5H10.6L9.81 8H5.28L4 10.55L5.79 11.44L6.52 10H17.28L18 11.45L19.79 10.56L18.52 8ZM17.67 22H15.6L15.36 21.1L11.9 15.9L8.43 21.1L8.2 22H6.13L9.02 11H11.09L10.73 12.35L11.9 14.1L13.06 12.35L12.71 11H14.78L17.67 22ZM11.3 15L10.4 13.65L9.22 18.13L11.3 15ZM14.58 18.12L13.4 13.64L12.5 15L14.58 18.12Z" fill="#384150"/>
</svg>
