<svg width="24" height="24" viewBox="0 0 24 24" fill="none" xmlns="http://www.w3.org/2000/svg">
<path d="M21.9235 11.6C19.9035 6.91 16.1035 4 12.0035 4C7.90348 4 4.10348 6.91 2.08348 11.6C2.02842 11.7262 2 11.8623 2 12C2 12.1377 2.02842 12.2738 2.08348 12.4C4.10348 17.09 7.90348 20 12.0035 20C16.1035 20 19.9035 17.09 21.9235 12.4C21.9785 12.2738 22.007 12.1377 22.007 12C22.007 11.8623 21.9785 11.7262 21.9235 11.6ZM12.0035 18C8.83348 18 5.83348 15.71 4.10348 12C5.83348 8.29 8.83348 6 12.0035 6C15.1735 6 18.1735 8.29 19.9035 12C18.1735 15.71 15.1735 18 12.0035 18ZM12.0035 8C11.2124 8 10.439 8.2346 9.7812 8.67412C9.12341 9.11365 8.61072 9.73836 8.30797 10.4693C8.00522 11.2002 7.926 12.0044 8.08034 12.7804C8.23468 13.5563 8.61565 14.269 9.17506 14.8284C9.73447 15.3878 10.4472 15.7688 11.2231 15.9231C11.999 16.0775 12.8033 15.9983 13.5342 15.6955C14.2651 15.3928 14.8898 14.8801 15.3294 14.2223C15.7689 13.5645 16.0035 12.7911 16.0035 12C16.0035 10.9391 15.5821 9.92172 14.8319 9.17157C14.0818 8.42143 13.0644 8 12.0035 8ZM12.0035 14C11.6079 14 11.2212 13.8827 10.8923 13.6629C10.5634 13.4432 10.3071 13.1308 10.1557 12.7654C10.0044 12.3999 9.96474 11.9978 10.0419 11.6098C10.1191 11.2219 10.3096 10.8655 10.5893 10.5858C10.869 10.3061 11.2253 10.1156 11.6133 10.0384C12.0013 9.96126 12.4034 10.0009 12.7689 10.1522C13.1343 10.3036 13.4467 10.56 13.6664 10.8889C13.8862 11.2178 14.0035 11.6044 14.0035 12C14.0035 12.5304 13.7928 13.0391 13.4177 13.4142C13.0426 13.7893 12.5339 14 12.0035 14Z" fill="#384150"/>
</svg>
