<svg width="24" height="24" viewBox="0 0 24 24" fill="none" xmlns="http://www.w3.org/2000/svg">
<path d="M18.4276 8.20649C17.8166 6.80257 16.7621 5.6377 15.4258 4.89039C14.0895 4.14308 12.5449 3.85455 11.0289 4.06902C9.51292 4.28348 8.10904 4.98911 7.03243 6.07778C5.95581 7.16644 5.26585 8.57808 5.06827 10.0964C4.11491 10.3247 3.27859 10.8952 2.71814 11.6995C2.15768 12.5038 1.91212 13.4859 2.0281 14.4594C2.14407 15.4328 2.6135 16.3298 3.34723 16.9799C4.08097 17.63 5.02791 17.988 6.00822 17.986C6.27343 17.986 6.52777 17.8806 6.71529 17.6931C6.90282 17.5056 7.00817 17.2512 7.00817 16.986C7.00817 16.7208 6.90282 16.4665 6.71529 16.279C6.52777 16.0914 6.27343 15.9861 6.00822 15.9861C5.47782 15.9861 4.96914 15.7754 4.59409 15.4003C4.21903 15.0253 4.00833 14.5166 4.00833 13.9862C4.00833 13.4558 4.21903 12.9471 4.59409 12.572C4.96914 12.197 5.47782 11.9863 6.00822 11.9863C6.27343 11.9863 6.52777 11.8809 6.71529 11.6934C6.90282 11.5059 7.00817 11.2515 7.00817 10.9863C7.01073 9.80368 7.43244 8.66022 8.19838 7.7591C8.96432 6.85797 10.0249 6.25754 11.1917 6.06448C12.3585 5.87141 13.556 6.09821 14.5713 6.70458C15.5867 7.31095 16.3543 8.25763 16.7377 9.37643C16.7948 9.54826 16.8976 9.70134 17.0349 9.81934C17.1723 9.93733 17.3391 10.0158 17.5176 10.0464C18.1836 10.1723 18.7874 10.52 19.2306 11.0329C19.6737 11.5458 19.9301 12.1936 19.9579 12.8709C19.9857 13.5481 19.7834 14.2148 19.3838 14.7624C18.9843 15.3099 18.4111 15.706 17.7576 15.8861C17.5004 15.9524 17.28 16.1182 17.145 16.3469C17.0099 16.5757 16.9713 16.8488 17.0376 17.106C17.1039 17.3633 17.2697 17.5836 17.4985 17.7187C17.7273 17.8537 18.0003 17.8923 18.2576 17.826C19.3099 17.5479 20.2428 16.934 20.9144 16.0775C21.5861 15.2211 21.96 14.1688 21.9792 13.0805C21.9985 11.9922 21.662 10.9274 21.021 10.0477C20.38 9.16804 19.4694 8.52157 18.4276 8.20649ZM12.7179 10.2764C12.6228 10.1853 12.5106 10.114 12.3879 10.0664C12.1444 9.96638 11.8714 9.96638 11.6279 10.0664C11.5052 10.114 11.393 10.1853 11.2979 10.2764L8.2981 13.2762C8.10981 13.4645 8.00403 13.7199 8.00403 13.9862C8.00403 14.2525 8.10981 14.5079 8.2981 14.6961C8.4864 14.8844 8.74178 14.9902 9.00807 14.9902C9.27435 14.9902 9.52974 14.8844 9.71803 14.6961L11.008 13.3962V18.9859C11.008 19.2511 11.1133 19.5055 11.3008 19.693C11.4884 19.8805 11.7427 19.9859 12.0079 19.9859C12.2731 19.9859 12.5275 19.8805 12.715 19.693C12.9025 19.5055 13.0079 19.2511 13.0079 18.9859V13.3962L14.2978 14.6961C14.3907 14.7899 14.5013 14.8643 14.6232 14.915C14.745 14.9658 14.8757 14.9919 15.0078 14.9919C15.1398 14.9919 15.2705 14.9658 15.3923 14.915C15.5142 14.8643 15.6248 14.7899 15.7177 14.6961C15.8114 14.6032 15.8858 14.4926 15.9366 14.3707C15.9874 14.2489 16.0135 14.1182 16.0135 13.9862C16.0135 13.8542 15.9874 13.7235 15.9366 13.6016C15.8858 13.4798 15.8114 13.3692 15.7177 13.2762L12.7179 10.2764Z" fill="#384150"/>
</svg>
