<svg width="24" height="24" viewBox="0 0 24 24" fill="none" xmlns="http://www.w3.org/2000/svg">
<path d="M13.0012 15.28V8.5C13.0012 8.23478 12.8959 7.98043 12.7084 7.79289C12.5208 7.60536 12.2665 7.5 12.0012 7.5C11.736 7.5 11.4817 7.60536 11.2941 7.79289C11.1066 7.98043 11.0012 8.23478 11.0012 8.5V15.28C10.699 15.4545 10.4476 15.7051 10.2722 16.0068C10.0968 16.3086 10.0034 16.651 10.0012 17C10.0012 17.5304 10.212 18.0391 10.587 18.4142C10.9621 18.7893 11.4708 19 12.0012 19C12.5317 19 13.0404 18.7893 13.4155 18.4142C13.7905 18.0391 14.0012 17.5304 14.0012 17C13.9991 16.651 13.9057 16.3086 13.7303 16.0068C13.5549 15.7051 13.3035 15.4545 13.0012 15.28ZM16.5012 13V5.5C16.5012 4.30653 16.0271 3.16193 15.1832 2.31802C14.3393 1.47411 13.1947 1 12.0012 1C10.8078 1 9.66318 1.47411 8.81927 2.31802C7.97535 3.16193 7.50125 4.30653 7.50125 5.5V13C6.81009 13.7832 6.33538 14.7333 6.12406 15.7562C5.91274 16.7792 5.97215 17.8396 6.2964 18.8326C6.62065 19.8255 7.19852 20.7166 7.97283 21.4177C8.74714 22.1188 9.69107 22.6056 10.7112 22.83C11.135 22.9266 11.5669 22.9835 12.0012 23C13.1619 23.0054 14.2992 22.6741 15.2753 22.0461C16.2514 21.4182 17.0244 20.5207 17.5007 19.4623C17.977 18.4038 18.1361 17.23 17.9587 16.083C17.7813 14.936 17.275 13.8651 16.5012 13ZM14.5012 20.07C13.7056 20.7755 12.6623 21.136 11.6008 21.0722C10.5394 21.0085 9.54672 20.5256 8.84125 19.73C8.13577 18.9344 7.77526 17.891 7.83902 16.8296C7.90279 15.7681 8.3856 14.7755 9.18125 14.07C9.27574 13.9774 9.35091 13.8669 9.4024 13.7451C9.4539 13.6232 9.4807 13.4923 9.48125 13.36V5.5C9.48125 4.83696 9.74464 4.20107 10.2135 3.73223C10.6823 3.26339 11.3182 3 11.9812 3C12.6443 3 13.2802 3.26339 13.749 3.73223C14.2179 4.20107 14.4812 4.83696 14.4812 5.5V13.44C14.4818 13.5723 14.5086 13.7032 14.5601 13.8251C14.6116 13.9469 14.6868 14.0574 14.7812 14.15C15.19 14.5449 15.5099 15.0223 15.7197 15.5505C15.9294 16.0787 16.0242 16.6456 15.9977 17.2133C15.9712 17.781 15.8241 18.3366 15.566 18.843C15.308 19.3493 14.945 19.7949 14.5012 20.15V20.07Z" fill="#384150"/>
</svg>
