<svg width="24" height="24" viewBox="0 0 24 24" fill="none" xmlns="http://www.w3.org/2000/svg">
<path d="M14.2984 17.2767L13.0084 18.5767V12.9867C13.0084 12.7215 12.9031 12.4671 12.7155 12.2796C12.528 12.0921 12.2737 11.9867 12.0084 11.9867C11.7432 11.9867 11.4889 12.0921 11.3013 12.2796C11.1138 12.4671 11.0084 12.7215 11.0084 12.9867V18.5767L9.71844 17.2767C9.6252 17.1835 9.51451 17.1095 9.39268 17.0591C9.27086 17.0086 9.14029 16.9826 9.00844 16.9826C8.87658 16.9826 8.74601 17.0086 8.62419 17.0591C8.50236 17.1095 8.39167 17.1835 8.29844 17.2767C8.2052 17.37 8.13124 17.4806 8.08078 17.6025C8.03031 17.7243 8.00434 17.8549 8.00434 17.9867C8.00434 18.1186 8.03031 18.2491 8.08078 18.371C8.13124 18.4928 8.2052 18.6035 8.29844 18.6967L11.2984 21.6967C11.3935 21.7878 11.5057 21.8591 11.6284 21.9067C11.7481 21.9596 11.8776 21.9869 12.0084 21.9869C12.1393 21.9869 12.2687 21.9596 12.3884 21.9067C12.5112 21.8591 12.6233 21.7878 12.7184 21.6967L15.7184 18.6967C15.9067 18.5084 16.0125 18.253 16.0125 17.9867C16.0125 17.7204 15.9067 17.465 15.7184 17.2767C15.5301 17.0884 15.2747 16.9826 15.0084 16.9826C14.7421 16.9826 14.4867 17.0884 14.2984 17.2767ZM18.4284 6.20671C17.8174 4.80272 16.7629 3.63779 15.4265 2.89044C14.0901 2.14309 12.5455 1.85454 11.0294 2.06902C9.51331 2.2835 8.10936 2.98916 7.03269 4.07789C5.95602 5.16661 5.26602 6.57833 5.06844 8.09671C4.11502 8.32503 3.27866 8.89554 2.71817 9.6999C2.15769 10.5043 1.91212 11.4864 2.0281 12.4599C2.14408 13.4334 2.61353 14.3304 3.3473 14.9806C4.08107 15.6307 5.02806 15.9888 6.00844 15.9867C6.27365 15.9867 6.52801 15.8814 6.71554 15.6938C6.90308 15.5063 7.00844 15.2519 7.00844 14.9867C7.00844 14.7215 6.90308 14.4671 6.71554 14.2796C6.52801 14.0921 6.27365 13.9867 6.00844 13.9867C5.478 13.9867 4.96929 13.776 4.59422 13.4009C4.21915 13.0259 4.00844 12.5171 4.00844 11.9867C4.00844 11.4563 4.21915 10.9476 4.59422 10.5725C4.96929 10.1974 5.478 9.98671 6.00844 9.98671C6.27365 9.98671 6.52801 9.88135 6.71554 9.69382C6.90308 9.50628 7.00844 9.25193 7.00844 8.98671C7.01099 7.80399 7.43272 6.66046 8.1987 5.75929C8.96469 4.85812 10.0253 4.25766 11.1922 4.06458C12.359 3.87151 13.5566 4.09832 14.572 4.70472C15.5874 5.31112 16.355 6.25785 16.7384 7.37671C16.7956 7.54855 16.8983 7.70164 17.0357 7.81964C17.1731 7.93765 17.3399 8.01613 17.5184 8.04671C18.1845 8.17258 18.7883 8.52031 19.2315 9.03325C19.6746 9.54618 19.931 10.1941 19.9588 10.8714C19.9867 11.5486 19.7843 12.2154 19.3847 12.7629C18.9852 13.3105 18.4119 13.7066 17.7584 13.8867C17.6311 13.9195 17.5114 13.9771 17.4063 14.0562C17.3011 14.1353 17.2126 14.2343 17.1458 14.3476C17.0789 14.4609 17.035 14.5862 17.0166 14.7165C16.9982 14.8467 17.0056 14.9793 17.0384 15.1067C17.0713 15.2341 17.1289 15.3538 17.2079 15.4589C17.287 15.564 17.386 15.6525 17.4993 15.7194C17.6126 15.7862 17.738 15.8301 17.8682 15.8485C17.9985 15.867 18.1311 15.8595 18.2584 15.8267C19.3108 15.5486 20.2437 14.9347 20.9154 14.0782C21.5872 13.2217 21.961 12.1693 21.9803 11.081C21.9995 9.99264 21.663 8.92775 21.022 8.04803C20.381 7.16831 19.4703 6.52181 18.4284 6.20671Z" fill="#384150"/>
</svg>
