<svg width="24" height="24" viewBox="0 0 24 24" fill="none" xmlns="http://www.w3.org/2000/svg">
<path d="M15.8329 8.41288C15.7399 8.31915 15.6293 8.24476 15.5075 8.19399C15.3856 8.14322 15.2549 8.11708 15.1229 8.11708C14.9909 8.11708 14.8602 8.14322 14.7383 8.19399C14.6164 8.24476 14.5058 8.31915 14.4129 8.41288L12.1229 10.7129L9.83288 8.41288C9.64458 8.22458 9.38918 8.11879 9.12288 8.11879C8.85658 8.11879 8.60119 8.22458 8.41288 8.41288C8.22458 8.60119 8.11879 8.85658 8.11879 9.12288C8.11879 9.38918 8.22458 9.64458 8.41288 9.83288L10.7129 12.1229L8.41288 14.4129C8.31915 14.5058 8.24476 14.6164 8.19399 14.7383C8.14322 14.8602 8.11708 14.9909 8.11708 15.1229C8.11708 15.2549 8.14322 15.3856 8.19399 15.5075C8.24476 15.6293 8.31915 15.7399 8.41288 15.8329C8.50585 15.9266 8.61645 16.001 8.73831 16.0518C8.86016 16.1025 8.99087 16.1287 9.12288 16.1287C9.25489 16.1287 9.3856 16.1025 9.50746 16.0518C9.62932 16.001 9.73992 15.9266 9.83288 15.8329L12.1229 13.5329L14.4129 15.8329C14.5058 15.9266 14.6164 16.001 14.7383 16.0518C14.8602 16.1025 14.9909 16.1287 15.1229 16.1287C15.2549 16.1287 15.3856 16.1025 15.5075 16.0518C15.6293 16.001 15.7399 15.9266 15.8329 15.8329C15.9266 15.7399 16.001 15.6293 16.0518 15.5075C16.1025 15.3856 16.1287 15.2549 16.1287 15.1229C16.1287 14.9909 16.1025 14.8602 16.0518 14.7383C16.001 14.6164 15.9266 14.5058 15.8329 14.4129L13.5329 12.1229L15.8329 9.83288C15.9266 9.73992 16.001 9.62932 16.0518 9.50746C16.1025 9.3856 16.1287 9.25489 16.1287 9.12288C16.1287 8.99087 16.1025 8.86016 16.0518 8.73831C16.001 8.61645 15.9266 8.50585 15.8329 8.41288ZM19.1929 5.05288C18.2704 4.09778 17.167 3.33596 15.9469 2.81187C14.7269 2.28778 13.4147 2.01192 12.0869 2.00038C10.7591 1.98884 9.44231 2.24186 8.21334 2.74467C6.98438 3.24747 5.86786 3.99001 4.92893 4.92893C3.99001 5.86786 3.24747 6.98438 2.74467 8.21334C2.24186 9.44231 1.98884 10.7591 2.00038 12.0869C2.01192 13.4147 2.28778 14.7269 2.81187 15.9469C3.33596 17.167 4.09778 18.2704 5.05288 19.1929C5.97535 20.148 7.0788 20.9098 8.29884 21.4339C9.51888 21.958 10.8311 22.2339 12.1589 22.2454C13.4867 22.2569 14.8035 22.0039 16.0324 21.5011C17.2614 20.9983 18.3779 20.2558 19.3168 19.3168C20.2558 18.3779 20.9983 17.2614 21.5011 16.0324C22.0039 14.8035 22.2569 13.4867 22.2454 12.1589C22.2339 10.8311 21.958 9.51888 21.4339 8.29884C20.9098 7.0788 20.148 5.97535 19.1929 5.05288ZM17.7829 17.7829C16.4749 19.0923 14.7534 19.9077 12.9117 20.0902C11.0699 20.2727 9.22189 19.8109 7.6824 18.7837C6.14292 17.7564 5.00724 16.2271 4.46886 14.4564C3.93047 12.6856 4.02269 10.783 4.7298 9.07267C5.4369 7.36231 6.71516 5.95003 8.34677 5.07644C9.97839 4.20286 11.8624 3.92201 13.6779 4.28176C15.4934 4.6415 17.1279 5.61957 18.3031 7.04934C19.4783 8.47911 20.1214 10.2721 20.1229 12.1229C20.1265 13.1742 19.9215 14.2157 19.5198 15.1873C19.1182 16.1588 18.5278 17.041 17.7829 17.7829Z" fill="#384150"/>
</svg>
