<svg width="24" height="24" viewBox="0 0 24 24" fill="none" xmlns="http://www.w3.org/2000/svg">
<path d="M8.7558 8.30833C8.56749 8.11472 8.30999 8.00385 8.03994 8.0001C7.76989 7.99635 7.50941 8.10003 7.3158 8.28833C7.12219 8.47664 7.01132 8.73414 7.00756 9.00419C7.00381 9.27424 7.10749 9.53472 7.2958 9.72833L9.6358 12.0183L7.2958 14.3083C7.20207 14.4013 7.12768 14.5119 7.07691 14.6338C7.02614 14.7556 7 14.8863 7 15.0183C7 15.1503 7.02614 15.281 7.07691 15.4029C7.12768 15.5248 7.20207 15.6354 7.2958 15.7283C7.38876 15.8221 7.49936 15.8965 7.62122 15.9472C7.74308 15.998 7.87379 16.0241 8.0058 16.0241C8.13781 16.0241 8.26852 15.998 8.39038 15.9472C8.51223 15.8965 8.62284 15.8221 8.7158 15.7283L11.7158 12.7283C11.8095 12.6354 11.8839 12.5248 11.9347 12.4029C11.9855 12.281 12.0116 12.1503 12.0116 12.0183C12.0116 11.8863 11.9855 11.7556 11.9347 11.6338C11.8839 11.5119 11.8095 11.4013 11.7158 11.3083L8.7558 8.30833ZM17.2558 11.3083L14.2558 8.30833C14.0675 8.12003 13.8121 8.01424 13.5458 8.01424C13.2795 8.01424 13.0241 8.12003 12.8358 8.30833C12.6475 8.49664 12.5417 8.75203 12.5417 9.01833C12.5417 9.28463 12.6475 9.54003 12.8358 9.72833L15.1358 12.0183L12.8358 14.3083C12.7421 14.4013 12.6677 14.5119 12.6169 14.6338C12.5661 14.7556 12.54 14.8863 12.54 15.0183C12.54 15.1503 12.5661 15.281 12.6169 15.4029C12.6677 15.5248 12.7421 15.6354 12.8358 15.7283C12.9288 15.8221 13.0394 15.8965 13.1612 15.9472C13.2831 15.998 13.4138 16.0241 13.5458 16.0241C13.6778 16.0241 13.8085 15.998 13.9304 15.9472C14.0522 15.8965 14.1628 15.8221 14.2558 15.7283L17.2558 12.7283C17.3522 12.638 17.4297 12.5295 17.484 12.4091C17.5382 12.2887 17.568 12.1587 17.5718 12.0267C17.5755 11.8946 17.553 11.7632 17.5056 11.6399C17.4583 11.5166 17.387 11.4039 17.2958 11.3083H17.2558Z" fill="#384150"/>
</svg>
